Coordinates
version=1
nRows=8
nColumns=36
inDegrees=yes

Units are S.I. units (second, meters, Newtons, ...)
If the header above contains a line with 'inDegrees', this indicates whether rotational values are in degrees (yes) or radians (no).

endheader
time	pelvis_tilt	pelvis_list	pelvis_rotation	pelvis_tx	pelvis_ty	pelvis_tz	hip_flexion_r	hip_adduction_r	hip_rotation_r	knee_angle_r	knee_angle_r_beta	ankle_angle_r	subtalar_angle_r	mtp_angle_r	hip_flexion_l	hip_adduction_l	hip_rotation_l	knee_angle_l	knee_angle_l_beta	ankle_angle_l	subtalar_angle_l	mtp_angle_l	lumbar_extension	lumbar_bending	lumbar_rotation	arm_flex_r	arm_add_r	arm_rot_r	elbow_flex_r	pro_sup_r	arm_flex_l	arm_add_l	arm_rot_l	elbow_flex_l	pro_sup_l
     10.03000000	    -18.21345025	      0.46109844	      0.78387980	     -0.22865574	      0.87328149	     -0.55711013	     45.58792416	     -4.39289675	     -0.27289310	     45.90273438	      0.80115385	     20.38983049	    -13.47935411	     -7.49999987	     47.11130101	    -11.38601517	     -5.82077370	     44.92225166	      0.78404120	     14.02415711	     -4.53632076	     -7.49999987	     -6.63842127	      2.09810093	      3.68140119	     44.22163858	    -20.73801508	    -14.27463042	     36.20138314	    111.24097092	     60.98405631	    -17.79548975	     -2.53233827	     28.83020526	    109.59027968
     10.04000000	    -17.79112103	      0.47430742	      0.83609950	     -0.22334526	      0.87845039	     -0.55658551	     43.99893842	     -4.33881239	     -0.38924442	     44.50746958	      0.77680189	     20.03744489	    -13.16000132	     -7.49999987	     45.59502062	    -11.29682311	     -6.03926260	     43.64984900	      0.76183358	     13.78688503	     -4.34885741	     -7.49999987	     -5.65741083	      2.07399190	      3.54785931	     41.61151487	    -20.36923984	    -14.65799144	     35.54022671	    111.24501380	     58.62811537	    -17.97113451	     -2.66715018	     27.87153680	    109.52288018
     10.05000000	    -16.57576231	      0.53634002	      0.89296215	     -0.21777735	      0.88521311	     -0.55613153	     41.38724820	     -4.28834849	     -0.37931076	     42.81479549	      0.74725915	     19.28510406	    -13.17761207	     -7.49999987	     43.04790190	    -11.06671679	     -6.12365518	     42.07922502	      0.73442102	     12.97962194	     -4.58612621	     -7.49999987	     -5.83026965	      2.00643665	      3.70401325	     38.85689903	    -19.55065556	    -18.28878283	     36.09999935	    111.57751985	     56.88101845	    -17.75278643	     -3.02131552	     26.63426742	    109.54206960
     10.06000000	    -15.64710894	      0.56988304	      0.98982265	     -0.21222779	      0.89124590	     -0.55597667	     39.13524191	     -4.32041982	     -0.58201442	     41.22665012	      0.71954078	     18.86038838	    -12.91156778	     -7.49999987	     40.88442229	    -10.85117932	     -6.20161325	     40.61515031	      0.70886810	     12.49281023	     -4.53640984	     -7.49999987	     -5.57203981	      2.00726547	      3.52010568	     36.43621759	    -19.10451425	    -18.92032712	     35.64102870	    111.67449885	     54.67062787	    -17.92794482	     -3.03035790	     25.85405939	    109.50373738
     10.07000000	    -14.79227685	      0.63899469	      1.00666989	     -0.20675844	      0.89697333	     -0.55566338	     36.97182886	     -4.26731005	     -0.51782181	     39.61326252	      0.69138186	     18.45889149	    -12.79025081	     -7.49999987	     38.78666064	    -10.63126404	     -6.24625800	     39.14445932	      0.68319970	     11.99534005	     -4.50698090	     -7.49999987	     -5.25181361	      1.96446974	      3.43970451	     34.02625713	    -18.65115920	    -19.59941690	     35.24367828	    111.67587237	     52.41793479	    -18.03915643	     -3.09662301	     25.08465716	    109.43452231
     10.08000000	    -13.82735107	      0.71173549	      0.98554953	     -0.20114465	      0.90268227	     -0.55513762	     34.67307050	     -4.20607181	     -0.53316535	     37.96990654	      0.66269989	     17.97974088	    -12.89100938	     -7.49999987	     36.54363191	    -10.48629585	     -6.50631468	     37.66426722	      0.65736547	     11.42630692	     -4.58558644	     -7.49999987	     -5.07390634	      1.88692741	      3.47346586	     31.52206124	    -18.06730675	    -20.78867093	     35.21803571	    111.65595471	     50.34324229	    -18.02094740	     -3.34078386	     24.33307019	    109.33136149
     10.09000000	    -12.92820062	      0.77977968	      1.04702591	     -0.19563455	      0.90817881	     -0.55483551	     32.41979543	     -4.19054107	     -0.56302356	     36.28680823	      0.63332428	     17.53581001	    -12.76886850	     -7.49999987	     34.40872580	    -10.26359367	     -6.58009626	     36.18555633	      0.63155710	     10.88322525	     -4.46763375	     -7.49999987	     -4.86337712	      1.84198346	      3.37793208	     29.09419801	    -17.54112914	    -21.63139355	     35.12430630	    111.61258283	     48.22406629	    -17.99993749	     -3.63567696	     23.61034043	    109.23403534
     10.10000000	    -11.97662552	      0.83365646	      1.11193443	     -0.19026189	      0.91352850	     -0.55467747	     30.12862497	     -4.18119280	     -0.62043616	     34.61490540	      0.60414407	     17.04147278	    -12.76845095	     -7.49999987	     32.26339538	    -10.04452330	     -6.64020762	     34.74930803	      0.60648984	     10.32471540	     -4.44862476	     -7.49999987	     -4.75441430	      1.81820936	      3.25870887	     26.72509903	    -17.01035704	    -22.52652224	     35.21221461	    111.56267413	     46.08839462	    -17.98902617	     -3.97142217	     23.04265739	    109.13179040
